<?xml version="1.0" encoding="UTF-8"?>
<svg id="Layer_1" data-name="Layer 1" xmlns="http://www.w3.org/2000/svg" viewBox="0 0 290.41 206.04">
  <defs>
    <style>
      .cls-1 {
        fill: none;
        stroke: #b1aaf2;
        stroke-linecap: round;
        stroke-linejoin: round;
      }

      .cls-2 {
        fill: #ffe9bf;
      }

      .cls-3 {
        fill: #ffd28a;
      }

      .cls-4 {
        fill: #b1aaf2;
      }
    </style>
  </defs>
  <path id="dot_2" data-name="dot 2" class="cls-4" d="M64.91,84.05c-1.84,.42-3.67-.74-4.09-2.59-.42-1.84,.74-3.67,2.59-4.09,1.84-.42,3.67,.74,4.09,2.59,.42,1.84-.74,3.67-2.59,4.09Z"/>
  <path id="dot_2-2" data-name="dot 2" class="cls-4" d="M139.27,60.94c-1.84,.42-3.67-.74-4.09-2.59-.42-1.84,.74-3.67,2.59-4.09,1.84-.42,3.67,.74,4.09,2.59,.42,1.84-.74,3.67-2.59,4.09Z"/>
  <path id="dot_2-3" data-name="dot 2" class="cls-4" d="M98.65,101.35c-1.84,.42-3.67-.74-4.09-2.59-.42-1.84,.74-3.67,2.59-4.09,1.84-.42,3.67,.74,4.09,2.59,.42,1.84-.74,3.67-2.59,4.09Z"/>
  <path id="dot_2-4" data-name="dot 2" class="cls-4" d="M108.02,152.8c-1.84,.42-3.67-.74-4.09-2.59-.42-1.84,.74-3.67,2.59-4.09,1.84-.42,3.67,.74,4.09,2.59,.42,1.84-.74,3.67-2.59,4.09Z"/>
  <path id="dot_2-5" data-name="dot 2" class="cls-2" d="M189.57,63.98c-1.04,.24-2.08-.42-2.31-1.46-.24-1.04,.42-2.08,1.46-2.31,1.04-.24,2.08,.42,2.31,1.46,.24,1.04-.42,2.08-1.46,2.31Z"/>
  <path id="dot_2-6" data-name="dot 2" class="cls-2" d="M189.77,91.97c-1.04,.24-2.08-.42-2.31-1.46-.24-1.04,.42-2.08,1.46-2.31,1.04-.24,2.08,.42,2.31,1.46,.24,1.04-.42,2.08-1.46,2.31Z"/>
  <path id="dot_2-7" data-name="dot 2" class="cls-2" d="M130.79,26.83c-1.04,.24-2.08-.42-2.31-1.46-.24-1.04,.42-2.08,1.46-2.31,1.04-.24,2.08,.42,2.31,1.46,.24,1.04-.42,2.08-1.46,2.31Z"/>
  <path id="dot_2-8" data-name="dot 2" class="cls-2" d="M48.77,131.5c-1.04,.24-2.08-.42-2.31-1.46-.24-1.04,.42-2.08,1.46-2.31,1.04-.24,2.08,.42,2.31,1.46,.24,1.04-.42,2.08-1.46,2.31Z"/>
  <path id="dot_2-9" data-name="dot 2" class="cls-2" d="M132.73,129.57c-1.04,.24-2.08-.42-2.31-1.46-.24-1.04,.42-2.08,1.46-2.31,1.04-.24,2.08,.42,2.31,1.46,.24,1.04-.42,2.08-1.46,2.31Z"/>
  <path class="cls-3" d="M233.54,89.16l-1.17-5.3c-.44-2-2-3.55-3.99-3.99l-5.3-1.17,5.29-1.15c2.01-.44,3.58-2.01,4.02-4.02l1.15-5.29,1.17,5.3c.44,2,2,3.55,3.99,3.99l5.3,1.17-5.29,1.15c-2.01,.44-3.58,2.01-4.02,4.02l-1.15,5.29Z"/>
  <path class="cls-3" d="M87.26,183.04l-.94-4.25c-.35-1.6-1.61-2.85-3.21-3.21l-4.25-.94,4.25-.92c1.61-.35,2.88-1.61,3.23-3.23l.92-4.25,.94,4.25c.35,1.6,1.6,2.85,3.21,3.21l4.25,.94-4.25,.92c-1.61,.35-2.88,1.61-3.23,3.23l-.92,4.25Z"/>
  <path class="cls-3" d="M64.16,130.74l-.94-4.25c-.35-1.6-1.61-2.85-3.21-3.21l-4.25-.94,4.25-.92c1.61-.35,2.88-1.61,3.23-3.23l.92-4.25,.94,4.25c.35,1.6,1.6,2.85,3.21,3.21l4.25,.94-4.25,.92c-1.61,.35-2.88,1.61-3.23,3.23l-.92,4.25Z"/>
  <path class="cls-3" d="M110.5,47.9l-.67-3.04c-.25-1.15-1.15-2.04-2.3-2.3l-3.04-.67,3.04-.66c1.16-.25,2.06-1.15,2.31-2.31l.66-3.04,.67,3.04c.25,1.15,1.15,2.04,2.3,2.3l3.04,.67-3.04,.66c-1.16,.25-2.06,1.15-2.31,2.31l-.66,3.04Z"/>
  <line class="cls-1" x1="62.41" y1="111.42" x2="62.41" y2="86.66"/>
  <line class="cls-1" x1="69.36" y1="77.15" x2="106.05" y2="46.33"/>
  <line class="cls-1" x1="108.27" y1="54.18" x2="99.73" y2="91.81"/>
  <line class="cls-1" x1="98.15" y1="104.78" x2="106.05" y2="143.05"/>
  <line class="cls-1" x1="104" y1="154.75" x2="93.09" y2="169.62"/>
  <line class="cls-1" x1="114.59" y1="44.39" x2="132.3" y2="54.18"/>
  <line class="cls-1" x1="145.45" y1="56.39" x2="167.41" y2="49.1"/>
  <line class="cls-1" x1="182.28" y1="49.1" x2="227.82" y2="72.99"/>
  <path class="cls-3" d="M175.32,62.09l-1.76-7.98c-.66-3.01-3.01-5.35-6.02-6.02l-7.98-1.76,7.98-1.73c3.03-.66,5.4-3.02,6.05-6.05l1.73-7.98,1.76,7.98c.66,3.01,3.01,5.35,6.02,6.02l7.98,1.76-7.98,1.73c-3.03,.66-5.4,3.02-6.05,6.05l-1.73,7.98Z"/>
</svg>