<?xml version="1.0" encoding="UTF-8"?>
<svg id="Layer_1" data-name="Layer 1" xmlns="http://www.w3.org/2000/svg" viewBox="0 0 290.41 206.04">
  <defs>
    <style>
      .cls-1 {
        fill: none;
        stroke: #b1aaf2;
        stroke-linecap: round;
        stroke-linejoin: round;
      }

      .cls-2 {
        fill: #ffe9bf;
      }

      .cls-3 {
        fill: #ffd28a;
      }

      .cls-4 {
        fill: #b1aaf2;
      }
    </style>
  </defs>
  <path class="cls-3" d="M204.68,113.4l-1.94-8.76c-.73-3.3-3.31-5.88-6.61-6.61l-8.76-1.94,8.75-1.9c3.33-.72,5.92-3.32,6.65-6.64l1.9-8.75,1.94,8.76c.73,3.3,3.31,5.88,6.61,6.61l8.76,1.94-8.75,1.9c-3.33,.72-5.92,3.32-6.65,6.65l-1.9,8.75Z"/>
  <path class="cls-3" d="M119.21,71.84l-.84-3.81c-.32-1.44-1.44-2.56-2.87-2.87l-3.81-.84,3.81-.83c1.45-.31,2.58-1.44,2.89-2.89l.83-3.81,.84,3.81c.32,1.44,1.44,2.56,2.87,2.87l3.81,.84-3.81,.83c-1.45,.31-2.58,1.44-2.89,2.89l-.83,3.81Z"/>
  <path class="cls-3" d="M70.98,165.4l-.84-3.81c-.32-1.44-1.44-2.56-2.87-2.87l-3.81-.84,3.81-.83c1.45-.31,2.58-1.44,2.89-2.89l.83-3.81,.84,3.81c.32,1.44,1.44,2.56,2.87,2.87l3.81,.84-3.81,.83c-1.45,.31-2.58,1.44-2.89,2.89l-.83,3.81Z"/>
  <path class="cls-3" d="M231.46,172.99l-1.27-5.73c-.48-2.16-2.16-3.85-4.32-4.32l-5.73-1.27,5.73-1.24c2.18-.47,3.88-2.17,4.35-4.35l1.24-5.73,1.27,5.73c.48,2.16,2.16,3.85,4.32,4.32l5.73,1.27-5.73,1.24c-2.18,.47-3.88,2.17-4.35,4.35l-1.24,5.73Z"/>
  <path id="dot_2" data-name="dot 2" class="cls-4" d="M230.52,130.29c-1.84,.42-3.67-.74-4.09-2.59-.42-1.84,.74-3.67,2.59-4.09,1.84-.42,3.67,.74,4.09,2.59,.42,1.84-.74,3.67-2.59,4.09Z"/>
  <path id="dot_2-2" data-name="dot 2" class="cls-4" d="M100.57,141.42c-1.84,.42-3.67-.74-4.09-2.59-.42-1.84,.74-3.67,2.59-4.09,1.84-.42,3.67,.74,4.09,2.59,.42,1.84-.74,3.67-2.59,4.09Z"/>
  <line class="cls-1" x1="128.35" y1="67.72" x2="190.19" y2="90.67"/>
  <line class="cls-1" x1="210.8" y1="104.39" x2="224.9" y2="119.65"/>
  <line class="cls-1" x1="231.46" y1="134.66" x2="231.46" y2="146.06"/>
  <line class="cls-1" x1="194" y1="102.65" x2="108.44" y2="131.82"/>
  <line class="cls-1" x1="92.99" y1="141.67" x2="78.51" y2="151.9"/>
  <path id="dot_2-3" data-name="dot 2" class="cls-2" d="M59.78,145.49c-1.04,.24-2.08-.42-2.31-1.46-.24-1.04,.42-2.08,1.46-2.31,1.04-.24,2.08,.42,2.31,1.46,.24,1.04-.42,2.08-1.46,2.31Z"/>
  <path id="dot_2-4" data-name="dot 2" class="cls-2" d="M49.99,48.86c-1.04,.24-2.08-.42-2.31-1.46-.24-1.04,.42-2.08,1.46-2.31,1.04-.24,2.08,.42,2.31,1.46,.24,1.04-.42,2.08-1.46,2.31Z"/>
  <path id="dot_2-5" data-name="dot 2" class="cls-2" d="M123.61,36.88c-1.04,.24-2.08-.42-2.31-1.46-.24-1.04,.42-2.08,1.46-2.31,1.04-.24,2.08,.42,2.31,1.46,.24,1.04-.42,2.08-1.46,2.31Z"/>
  <path id="dot_2-6" data-name="dot 2" class="cls-2" d="M143.99,51.85c-1.04,.24-2.08-.42-2.31-1.46-.24-1.04,.42-2.08,1.46-2.31,1.04-.24,2.08,.42,2.31,1.46,.24,1.04-.42,2.08-1.46,2.31Z"/>
</svg>