<?xml version="1.0" encoding="UTF-8"?>
<svg id="Layer_1" data-name="Layer 1" xmlns="http://www.w3.org/2000/svg" viewBox="0 0 290.41 206.04">
  <defs>
    <style>
      .cls-1 {
        fill: none;
        stroke: #b1aaf2;
        stroke-linecap: round;
        stroke-linejoin: round;
      }

      .cls-2 {
        fill: #ffe9bf;
      }

      .cls-3 {
        fill: #ffd28a;
      }

      .cls-4 {
        fill: #b1aaf2;
      }
    </style>
  </defs>
  <line class="cls-1" x1="134.43" y1="35.64" x2="144.09" y2="62.75"/>
  <line class="cls-1" x1="146.9" y1="85.19" x2="146.9" y2="101.08"/>
  <line class="cls-1" x1="137.86" y1="120.09" x2="112.93" y2="150.32"/>
  <line class="cls-1" x1="155" y1="122.59" x2="188.03" y2="171.51"/>
  <path class="cls-3" d="M145.71,131.07l-1.94-8.76c-.73-3.3-3.31-5.88-6.61-6.61l-8.76-1.94,8.75-1.9c3.33-.72,5.92-3.32,6.65-6.65l1.9-8.75,1.94,8.76c.73,3.3,3.31,5.88,6.61,6.61l8.76,1.94-8.75,1.9c-3.33,.72-5.92,3.32-6.64,6.65l-1.9,8.75Z"/>
  <path class="cls-3" d="M144.09,84.84l-1.22-5.52c-.46-2.08-2.08-3.71-4.17-4.17l-5.52-1.22,5.52-1.2c2.1-.46,3.73-2.09,4.19-4.19l1.2-5.52,1.22,5.52c.46,2.08,2.08,3.71,4.17,4.17l5.52,1.22-5.52,1.2c-2.1,.46-3.73,2.09-4.19,4.19l-1.2,5.52Z"/>
  <path id="dot_2" data-name="dot 2" class="cls-4" d="M132.59,30.32c-1.84,.42-3.67-.74-4.09-2.59-.42-1.84,.74-3.67,2.59-4.09,1.84-.42,3.67,.74,4.09,2.59,.42,1.84-.74,3.67-2.59,4.09Z"/>
  <path id="dot_2-2" data-name="dot 2" class="cls-4" d="M108.23,159.37c-1.84,.42-3.67-.74-4.09-2.59-.42-1.84,.74-3.67,2.59-4.09,1.84-.42,3.67,.74,4.09,2.59,.42,1.84-.74,3.67-2.59,4.09Z"/>
  <path id="dot_2-3" data-name="dot 2" class="cls-4" d="M192.21,180.46c-1.84,.42-3.67-.74-4.09-2.59-.42-1.84,.74-3.67,2.59-4.09,1.84-.42,3.67,.74,4.09,2.59,.42,1.84-.74,3.67-2.59,4.09Z"/>
  <path id="dot_2-4" data-name="dot 2" class="cls-2" d="M191.88,102.97c-1.04,.24-2.08-.42-2.31-1.46-.24-1.04,.42-2.08,1.46-2.31,1.04-.24,2.08,.42,2.31,1.46,.24,1.04-.42,2.08-1.46,2.31Z"/>
  <path id="dot_2-5" data-name="dot 2" class="cls-2" d="M97.89,30.81c-1.04,.24-2.08-.42-2.31-1.46-.24-1.04,.42-2.08,1.46-2.31,1.04-.24,2.08,.42,2.31,1.46,.24,1.04-.42,2.08-1.46,2.31Z"/>
  <path id="dot_2-6" data-name="dot 2" class="cls-2" d="M179.54,85.14c-1.04,.24-2.08-.42-2.31-1.46-.24-1.04,.42-2.08,1.46-2.31,1.04-.24,2.08,.42,2.31,1.46,.24,1.04-.42,2.08-1.46,2.31Z"/>
  <path id="dot_2-7" data-name="dot 2" class="cls-2" d="M128.84,182.43c-1.04,.24-2.08-.42-2.31-1.46-.24-1.04,.42-2.08,1.46-2.31,1.04-.24,2.08,.42,2.31,1.46,.24,1.04-.42,2.08-1.46,2.31Z"/>
</svg>