<?xml version="1.0" encoding="UTF-8"?>
<svg id="Layer_1" data-name="Layer 1" xmlns="http://www.w3.org/2000/svg" viewBox="0 0 290.41 206.04">
  <defs>
    <style>
      .cls-1 {
        fill: none;
        stroke: #b1aaf2;
        stroke-linecap: round;
        stroke-linejoin: round;
      }

      .cls-2 {
        fill: #ffe9bf;
      }

      .cls-3 {
        fill: #ffd28a;
      }

      .cls-4 {
        fill: #b1aaf2;
      }
    </style>
  </defs>
  <path id="dot_2" data-name="dot 2" class="cls-4" d="M108.91,149c-1.84,.42-3.67-.74-4.09-2.59-.42-1.84,.74-3.67,2.59-4.09,1.84-.42,3.67,.74,4.09,2.59,.42,1.84-.74,3.67-2.59,4.09Z"/>
  <path id="dot_2-2" data-name="dot 2" class="cls-4" d="M143.76,96.03c-1.84,.42-3.67-.74-4.09-2.59-.42-1.84,.74-3.67,2.59-4.09,1.84-.42,3.67,.74,4.09,2.59,.42,1.84-.74,3.67-2.59,4.09Z"/>
  <path id="dot_2-3" data-name="dot 2" class="cls-4" d="M202.19,107.98c-1.84,.42-3.67-.74-4.09-2.59-.42-1.84,.74-3.67,2.59-4.09,1.84-.42,3.67,.74,4.09,2.59,.42,1.84-.74,3.67-2.59,4.09Z"/>
  <path id="dot_2-4" data-name="dot 2" class="cls-4" d="M88.62,102.04c-1.84,.42-3.67-.74-4.09-2.59-.42-1.84,.74-3.67,2.59-4.09,1.84-.42,3.67,.74,4.09,2.59,.42,1.84-.74,3.67-2.59,4.09Z"/>
  <path id="dot_2-5" data-name="dot 2" class="cls-4" d="M81.18,126.64c-1.84,.42-3.67-.74-4.09-2.59-.42-1.84,.74-3.67,2.59-4.09,1.84-.42,3.67,.74,4.09,2.59,.42,1.84-.74,3.67-2.59,4.09Z"/>
  <path id="dot_2-6" data-name="dot 2" class="cls-2" d="M114.95,74.67c-1.04,.24-2.08-.42-2.31-1.46-.24-1.04,.42-2.08,1.46-2.31,1.04-.24,2.08,.42,2.31,1.46,.24,1.04-.42,2.08-1.46,2.31Z"/>
  <path id="dot_2-7" data-name="dot 2" class="cls-2" d="M236.59,60.84c-1.04,.24-2.08-.42-2.31-1.46-.24-1.04,.42-2.08,1.46-2.31,1.04-.24,2.08,.42,2.31,1.46,.24,1.04-.42,2.08-1.46,2.31Z"/>
  <path id="dot_2-8" data-name="dot 2" class="cls-2" d="M97.67,119.4c-1.04,.24-2.08-.42-2.31-1.46-.24-1.04,.42-2.08,1.46-2.31,1.04-.24,2.08,.42,2.31,1.46,.24,1.04-.42,2.08-1.46,2.31Z"/>
  <path id="dot_2-9" data-name="dot 2" class="cls-2" d="M80.85,72.08c-1.04,.24-2.08-.42-2.31-1.46-.24-1.04,.42-2.08,1.46-2.31,1.04-.24,2.08,.42,2.31,1.46,.24,1.04-.42,2.08-1.46,2.31Z"/>
  <line class="cls-1" x1="68.36" y1="100.96" x2="77" y2="117.51"/>
  <line class="cls-1" x1="84.51" y1="127.56" x2="102.38" y2="141.36"/>
  <line class="cls-1" x1="114.52" y1="147.66" x2="154.15" y2="159.03"/>
  <line class="cls-1" x1="170.47" y1="153.34" x2="197.57" y2="111.57"/>
  <line class="cls-1" x1="204.86" y1="96.37" x2="212.14" y2="76.56"/>
  <line class="cls-1" x1="204.86" y1="75.39" x2="148.62" y2="91.71"/>
  <line class="cls-1" x1="135.81" y1="94.92" x2="95.3" y2="98.71"/>
  <line class="cls-1" x1="82.39" y1="97.74" x2="67.03" y2="94.26"/>
  <line class="cls-1" x1="215.49" y1="63.66" x2="222.2" y2="45.88"/>
  <path class="cls-3" d="M210.18,88.54l-1.76-7.98c-.66-3.01-3.01-5.35-6.02-6.02l-7.98-1.76,7.98-1.73c3.03-.66,5.4-3.02,6.05-6.05l1.73-7.98,1.76,7.98c.66,3.01,3.01,5.35,6.02,6.02l7.98,1.76-7.98,1.73c-3.03,.66-5.4,3.02-6.05,6.05l-1.73,7.98Z"/>
  <path class="cls-3" d="M164.41,174.39l-1.27-5.75c-.48-2.17-2.17-3.86-4.34-4.34l-5.75-1.27,5.75-1.25c2.18-.47,3.89-2.18,4.37-4.37l1.25-5.75,1.27,5.75c.48,2.17,2.17,3.86,4.34,4.34l5.75,1.27-5.75,1.25c-2.18,.47-3.89,2.18-4.37,4.37l-1.25,5.75Z"/>
  <path class="cls-3" d="M226.38,47.36l-.88-3.98c-.33-1.5-1.5-2.67-3-3l-3.98-.88,3.97-.86c1.51-.33,2.69-1.51,3.02-3.02l.86-3.97,.88,3.98c.33,1.5,1.5,2.67,3,3l3.98,.88-3.97,.86c-1.51,.33-2.69,1.51-3.02,3.02l-.86,3.97Z"/>
  <path class="cls-3" d="M63.67,105.63l-1.27-5.75c-.48-2.17-2.17-3.86-4.34-4.34l-5.75-1.27,5.75-1.25c2.18-.47,3.89-2.18,4.37-4.37l1.25-5.75,1.27,5.75c.48,2.17,2.17,3.86,4.34,4.34l5.75,1.27-5.75,1.25c-2.18,.47-3.89,2.18-4.37,4.37l-1.25,5.75Z"/>
</svg>