<?xml version="1.0" encoding="UTF-8"?>
<svg id="Layer_1" data-name="Layer 1" xmlns="http://www.w3.org/2000/svg" viewBox="0 0 290.41 206.04">
  <defs>
    <style>
      .cls-1 {
        fill: none;
        stroke: #b1aaf2;
        stroke-linecap: round;
        stroke-linejoin: round;
      }

      .cls-2 {
        fill: #ffe9bf;
      }

      .cls-3 {
        fill: #ffd28a;
      }

      .cls-4 {
        fill: #b1aaf2;
      }
    </style>
  </defs>
  <line class="cls-1" x1="103.45" y1="78.2" x2="69.28" y2="110.94"/>
  <line class="cls-1" x1="70.38" y1="118.52" x2="99.24" y2="116.26"/>
  <line class="cls-1" x1="121.96" y1="116.52" x2="175.58" y2="140.84"/>
  <line class="cls-1" x1="187.92" y1="136.33" x2="175.58" y2="91.72"/>
  <line class="cls-1" x1="115.43" y1="72.98" x2="128.48" y2="75.35"/>
  <line class="cls-1" x1="140.32" y1="77.41" x2="166.8" y2="80.09"/>
  <line class="cls-1" x1="174.63" y1="74.16" x2="178.19" y2="63.01"/>
  <line class="cls-1" x1="185.55" y1="55.42" x2="199.79" y2="50.2"/>
  <line class="cls-1" x1="211.7" y1="53.14" x2="222.17" y2="61.57"/>
  <path id="dot_2" data-name="dot 2" class="cls-4" d="M63.3,119.6c-1.84,.42-3.67-.74-4.09-2.59-.42-1.84,.74-3.67,2.59-4.09,1.84-.42,3.67,.74,4.09,2.59,.42,1.84-.74,3.67-2.59,4.09Z"/>
  <path id="dot_2-2" data-name="dot 2" class="cls-4" d="M134.57,79.73c-1.84,.42-3.67-.74-4.09-2.59-.42-1.84,.74-3.67,2.59-4.09,1.84-.42,3.67,.74,4.09,2.59,.42,1.84-.74,3.67-2.59,4.09Z"/>
  <path id="dot_2-3" data-name="dot 2" class="cls-4" d="M181.58,60.7c-1.84,.42-3.67-.74-4.09-2.59-.42-1.84,.74-3.67,2.59-4.09,1.84-.42,3.67,.74,4.09,2.59,.42,1.84-.74,3.67-2.59,4.09Z"/>
  <path id="dot_2-4" data-name="dot 2" class="cls-4" d="M206.61,52.72c-1.84,.42-3.67-.74-4.09-2.59-.42-1.84,.74-3.67,2.59-4.09,1.84-.42,3.67,.74,4.09,2.59,.42,1.84-.74,3.67-2.59,4.09Z"/>
  <path id="dot_2-5" data-name="dot 2" class="cls-2" d="M86.79,140.51c-1.04,.24-2.08-.42-2.31-1.46-.24-1.04,.42-2.08,1.46-2.31,1.04-.24,2.08,.42,2.31,1.46,.24,1.04-.42,2.08-1.46,2.31Z"/>
  <path class="cls-3" d="M111.05,125.9l-1.22-5.52c-.46-2.08-2.08-3.71-4.17-4.17l-5.52-1.22,5.52-1.2c2.1-.46,3.73-2.09,4.19-4.19l1.2-5.52,1.22,5.52c.46,2.08,2.08,3.71,4.17,4.17l5.52,1.22-5.52,1.2c-2.1,.46-3.73,2.09-4.19,4.19l-1.2,5.52Z"/>
  <path class="cls-3" d="M171.64,91.37l-.84-3.79c-.32-1.43-1.43-2.55-2.86-2.86l-3.79-.84,3.79-.82c1.44-.31,2.57-1.44,2.88-2.88l.82-3.79,.84,3.79c.32,1.43,1.43,2.55,2.86,2.86l3.79,.84-3.79,.82c-1.44,.31-2.57,1.44-2.88,2.88l-.82,3.79Z"/>
  <path class="cls-3" d="M226.15,71.8l-.57-2.6c-.22-.98-.98-1.74-1.96-1.96l-2.6-.57,2.6-.56c.99-.21,1.76-.98,1.97-1.97l.56-2.6,.57,2.6c.22,.98,.98,1.74,1.96,1.96l2.6,.57-2.6,.56c-.99,.21-1.76,.98-1.97,1.97l-.56,2.6Z"/>
  <path class="cls-3" d="M107.43,76.92l-.57-2.6c-.22-.98-.98-1.74-1.96-1.96l-2.6-.57,2.6-.56c.99-.21,1.76-.98,1.97-1.97l.56-2.6,.57,2.6c.22,.98,.98,1.74,1.96,1.96l2.6,.57-2.6,.56c-.99,.21-1.76,.98-1.97,1.97l-.56,2.6Z"/>
  <path class="cls-3" d="M184.16,158.14l-1.22-5.52c-.46-2.08-2.08-3.71-4.17-4.17l-5.52-1.22,5.52-1.2c2.1-.46,3.73-2.09,4.19-4.19l1.2-5.52,1.22,5.52c.46,2.08,2.08,3.71,4.17,4.17l5.52,1.22-5.52,1.2c-2.1,.46-3.73,2.09-4.19,4.19l-1.2,5.52Z"/>
  <path id="dot_2-6" data-name="dot 2" class="cls-2" d="M95.68,161.97c-1.04,.24-2.08-.42-2.31-1.46-.24-1.04,.42-2.08,1.46-2.31,1.04-.24,2.08,.42,2.31,1.46,.24,1.04-.42,2.08-1.46,2.31Z"/>
  <path id="dot_2-7" data-name="dot 2" class="cls-2" d="M61.49,65.4c-1.04,.24-2.08-.42-2.31-1.46-.24-1.04,.42-2.08,1.46-2.31,1.04-.24,2.08,.42,2.31,1.46,.24,1.04-.42,2.08-1.46,2.31Z"/>
  <path id="dot_2-8" data-name="dot 2" class="cls-2" d="M193.09,96.46c-1.04,.24-2.08-.42-2.31-1.46-.24-1.04,.42-2.08,1.46-2.31,1.04-.24,2.08,.42,2.31,1.46,.24,1.04-.42,2.08-1.46,2.31Z"/>
  <path id="dot_2-9" data-name="dot 2" class="cls-2" d="M105.81,47.85c-1.04,.24-2.08-.42-2.31-1.46-.24-1.04,.42-2.08,1.46-2.31,1.04-.24,2.08,.42,2.31,1.46,.24,1.04-.42,2.08-1.46,2.31Z"/>
  <path id="dot_2-10" data-name="dot 2" class="cls-2" d="M146.2,160.03c-1.04,.24-2.08-.42-2.31-1.46-.24-1.04,.42-2.08,1.46-2.31,1.04-.24,2.08,.42,2.31,1.46,.24,1.04-.42,2.08-1.46,2.31Z"/>
</svg>