<?xml version="1.0" encoding="UTF-8"?>
<svg id="Layer_1" data-name="Layer 1" xmlns="http://www.w3.org/2000/svg" viewBox="0 0 290.41 206.04">
  <defs>
    <style>
      .cls-1 {
        fill: none;
        stroke: #b1aaf2;
        stroke-linecap: round;
        stroke-linejoin: round;
      }

      .cls-2 {
        fill: #ffe9bf;
      }

      .cls-3 {
        fill: #ffd28a;
      }

      .cls-4 {
        fill: #b1aaf2;
      }
    </style>
  </defs>
  <line class="cls-1" x1="90.64" y1="101.29" x2="118.14" y2="89.26"/>
  <line class="cls-1" x1="127.76" y1="80.67" x2="161.45" y2="45.26"/>
  <line class="cls-1" x1="165.23" y1="50.76" x2="139.45" y2="161.79"/>
  <line class="cls-1" x1="187.92" y1="136.7" x2="171.42" y2="53.16"/>
  <line class="cls-1" x1="176.58" y1="50.76" x2="198.58" y2="85.48"/>
  <path id="dot_2" data-name="dot 2" class="cls-4" d="M124.07,88.82c-1.84,.42-3.67-.74-4.09-2.59-.42-1.84,.74-3.67,2.59-4.09,1.84-.42,3.67,.74,4.09,2.59,.42,1.84-.74,3.67-2.59,4.09Z"/>
  <path id="dot_2-2" data-name="dot 2" class="cls-4" d="M190.36,147.28c-1.84,.42-3.67-.74-4.09-2.59-.42-1.84,.74-3.67,2.59-4.09,1.84-.42,3.67,.74,4.09,2.59,.42,1.84-.74,3.67-2.59,4.09Z"/>
  <path id="dot_2-3" data-name="dot 2" class="cls-2" d="M199,54.91c-1.04,.24-2.08-.42-2.31-1.46-.24-1.04,.42-2.08,1.46-2.31,1.04-.24,2.08,.42,2.31,1.46,.24,1.04-.42,2.08-1.46,2.31Z"/>
  <path id="dot_2-4" data-name="dot 2" class="cls-2" d="M145.03,187.31c-1.04,.24-2.08-.42-2.31-1.46-.24-1.04,.42-2.08,1.46-2.31,1.04-.24,2.08,.42,2.31,1.46,.24,1.04-.42,2.08-1.46,2.31Z"/>
  <path id="dot_2-5" data-name="dot 2" class="cls-2" d="M118.56,142.41c-1.04,.24-2.08-.42-2.31-1.46-.24-1.04,.42-2.08,1.46-2.31,1.04-.24,2.08,.42,2.31,1.46,.24,1.04-.42,2.08-1.46,2.31Z"/>
  <path id="dot_2-6" data-name="dot 2" class="cls-2" d="M129.59,22.51c-1.04,.24-2.08-.42-2.31-1.46-.24-1.04,.42-2.08,1.46-2.31,1.04-.24,2.08,.42,2.31,1.46,.24,1.04-.42,2.08-1.46,2.31Z"/>
  <path class="cls-3" d="M168.76,57.02l-1.76-7.98c-.66-3.01-3.01-5.35-6.02-6.02l-7.98-1.76,7.98-1.73c3.03-.66,5.4-3.02,6.05-6.05l1.73-7.98,1.76,7.98c.66,3.01,3.01,5.35,6.02,6.02l7.98,1.76-7.98,1.73c-3.03,.66-5.4,3.02-6.05,6.05l-1.73,7.98Z"/>
  <path class="cls-3" d="M203.93,104.33l-1.22-5.52c-.46-2.08-2.08-3.71-4.17-4.17l-5.52-1.22,5.52-1.2c2.1-.46,3.73-2.09,4.19-4.19l1.2-5.52,1.22,5.52c.46,2.08,2.08,3.71,4.17,4.17l5.52,1.22-5.52,1.2c-2.1,.46-3.73,2.09-4.19,4.19l-1.2,5.52Z"/>
  <path class="cls-3" d="M136.7,175.86l-.84-3.82c-.32-1.44-1.44-2.56-2.88-2.88l-3.82-.84,3.81-.83c1.45-.31,2.58-1.45,2.89-2.89l.83-3.81,.84,3.82c.32,1.44,1.44,2.56,2.88,2.88l3.82,.84-3.81,.83c-1.45,.31-2.58,1.45-2.89,2.89l-.83,3.81Z"/>
  <path class="cls-3" d="M83.1,113.81l-.84-3.82c-.32-1.44-1.44-2.56-2.88-2.88l-3.82-.84,3.81-.83c1.45-.31,2.58-1.45,2.89-2.89l.83-3.81,.84,3.82c.32,1.44,1.44,2.56,2.88,2.88l3.82,.84-3.81,.83c-1.45,.31-2.58,1.45-2.89,2.89l-.83,3.81Z"/>
</svg>