<?xml version="1.0" encoding="UTF-8"?>
<svg id="Layer_1" data-name="Layer 1" xmlns="http://www.w3.org/2000/svg" viewBox="0 0 290.41 206.04">
  <defs>
    <style>
      .cls-1 {
        fill: none;
        stroke: #b1aaf2;
        stroke-linecap: round;
        stroke-linejoin: round;
      }

      .cls-2 {
        fill: #ffe9bf;
      }

      .cls-3 {
        fill: #ffd28a;
      }

      .cls-4 {
        fill: #b1aaf2;
      }
    </style>
  </defs>
  <path id="dot_2" data-name="dot 2" class="cls-4" d="M203.67,169.33c-1.84,.42-3.67-.74-4.09-2.59-.42-1.84,.74-3.67,2.59-4.09,1.84-.42,3.67,.74,4.09,2.59,.42,1.84-.74,3.67-2.59,4.09Z"/>
  <path id="dot_2-2" data-name="dot 2" class="cls-4" d="M249.59,136.46c-1.84,.42-3.67-.74-4.09-2.59-.42-1.84,.74-3.67,2.59-4.09,1.84-.42,3.67,.74,4.09,2.59,.42,1.84-.74,3.67-2.59,4.09Z"/>
  <path id="dot_2-3" data-name="dot 2" class="cls-4" d="M178.69,133.04c-1.84,.42-3.67-.74-4.09-2.59-.42-1.84,.74-3.67,2.59-4.09,1.84-.42,3.67,.74,4.09,2.59,.42,1.84-.74,3.67-2.59,4.09Z"/>
  <path id="dot_2-4" data-name="dot 2" class="cls-4" d="M131.16,121.74c-1.84,.42-3.67-.74-4.09-2.59-.42-1.84,.74-3.67,2.59-4.09,1.84-.42,3.67,.74,4.09,2.59,.42,1.84-.74,3.67-2.59,4.09Z"/>
  <path id="dot_2-5" data-name="dot 2" class="cls-4" d="M69.5,143.52c-1.84,.42-3.67-.74-4.09-2.59-.42-1.84,.74-3.67,2.59-4.09,1.84-.42,3.67,.74,4.09,2.59,.42,1.84-.74,3.67-2.59,4.09Z"/>
  <path id="dot_2-6" data-name="dot 2" class="cls-4" d="M84.91,125.28c-1.84,.42-3.67-.74-4.09-2.59-.42-1.84,.74-3.67,2.59-4.09,1.84-.42,3.67,.74,4.09,2.59,.42,1.84-.74,3.67-2.59,4.09Z"/>
  <path id="dot_2-7" data-name="dot 2" class="cls-2" d="M196.62,105.81c-1.04,.24-2.08-.42-2.31-1.46-.24-1.04,.42-2.08,1.46-2.31,1.04-.24,2.08,.42,2.31,1.46,.24,1.04-.42,2.08-1.46,2.31Z"/>
  <path id="dot_2-8" data-name="dot 2" class="cls-2" d="M65.75,69.17c-1.04,.24-2.08-.42-2.31-1.46-.24-1.04,.42-2.08,1.46-2.31,1.04-.24,2.08,.42,2.31,1.46,.24,1.04-.42,2.08-1.46,2.31Z"/>
  <path id="dot_2-9" data-name="dot 2" class="cls-2" d="M77.66,40.45c-1.04,.24-2.08-.42-2.31-1.46-.24-1.04,.42-2.08,1.46-2.31,1.04-.24,2.08,.42,2.31,1.46,.24,1.04-.42,2.08-1.46,2.31Z"/>
  <path id="dot_2-10" data-name="dot 2" class="cls-2" d="M91.35,148.74c-1.04,.24-2.08-.42-2.31-1.46-.24-1.04,.42-2.08,1.46-2.31,1.04-.24,2.08,.42,2.31,1.46,.24,1.04-.42,2.08-1.46,2.31Z"/>
  <path id="dot_2-11" data-name="dot 2" class="cls-2" d="M75.72,79.85c-1.04,.24-2.08-.42-2.31-1.46-.24-1.04,.42-2.08,1.46-2.31,1.04-.24,2.08,.42,2.31,1.46,.24,1.04-.42,2.08-1.46,2.31Z"/>
  <path id="dot_2-12" data-name="dot 2" class="cls-2" d="M119.94,94.26c-1.04,.24-2.08-.42-2.31-1.46-.24-1.04,.42-2.08,1.46-2.31,1.04-.24,2.08,.42,2.31,1.46,.24,1.04-.42,2.08-1.46,2.31Z"/>
  <path id="dot_2-13" data-name="dot 2" class="cls-2" d="M243.47,120.41c-1.04,.24-2.08-.42-2.31-1.46-.24-1.04,.42-2.08,1.46-2.31,1.04-.24,2.08,.42,2.31,1.46,.24,1.04-.42,2.08-1.46,2.31Z"/>
  <line class="cls-1" x1="57.87" y1="92.43" x2="46.85" y2="138.71"/>
  <line class="cls-1" x1="49.8" y1="146.85" x2="63.61" y2="142.52"/>
  <line class="cls-1" x1="73.36" y1="135.89" x2="80.13" y2="125.87"/>
  <line class="cls-1" x1="90.92" y1="118.52" x2="105.01" y2="112.87"/>
  <line class="cls-1" x1="114.23" y1="112.87" x2="124.79" y2="115.85"/>
  <line class="cls-1" x1="137.07" y1="120.51" x2="171.1" y2="127.36"/>
  <line class="cls-1" x1="178.96" y1="135.48" x2="178.96" y2="154.16"/>
  <line class="cls-1" x1="183.29" y1="161.2" x2="196.19" y2="164.43"/>
  <line class="cls-1" x1="207.39" y1="163.1" x2="217.13" y2="152.27"/>
  <line class="cls-1" x1="216.05" y1="142.52" x2="205.22" y2="126.27"/>
  <line class="cls-1" x1="194.93" y1="124.38" x2="183.29" y2="127.36"/>
  <line class="cls-1" x1="229.51" y1="141.69" x2="243.05" y2="135.73"/>
  <path class="cls-3" d="M220.98,159.52l-1.42-6.41c-.53-2.42-2.42-4.3-4.84-4.84l-6.41-1.42,6.41-1.39c2.44-.53,4.34-2.43,4.87-4.87l1.39-6.41,1.42,6.41c.53,2.42,2.42,4.3,4.84,4.84l6.41,1.42-6.41,1.39c-2.44,.53-4.34,2.43-4.87,4.87l-1.39,6.41Z"/>
  <path class="cls-3" d="M60.54,92.37l-.65-2.95c-.25-1.11-1.11-1.98-2.22-2.22l-2.95-.65,2.95-.64c1.12-.24,1.99-1.12,2.24-2.24l.64-2.95,.65,2.95c.25,1.11,1.11,1.98,2.22,2.22l2.95,.65-2.95,.64c-1.12,.24-1.99,1.12-2.24,2.24l-.64,2.95Z"/>
  <path class="cls-3" d="M200.75,127.83l-.65-2.95c-.25-1.11-1.11-1.98-2.22-2.22l-2.95-.65,2.95-.64c1.12-.24,1.99-1.12,2.24-2.24l.64-2.95,.65,2.95c.25,1.11,1.11,1.98,2.22,2.22l2.95,.65-2.95,.64c-1.12,.24-1.99,1.12-2.24,2.24l-.64,2.95Z"/>
  <path class="cls-3" d="M176.93,165.35l-.65-2.95c-.25-1.11-1.11-1.98-2.22-2.22l-2.95-.65,2.95-.64c1.12-.24,1.99-1.12,2.24-2.24l.64-2.95,.65,2.95c.25,1.11,1.11,1.98,2.22,2.22l2.95,.65-2.95,.64c-1.12,.24-1.99,1.12-2.24,2.24l-.64,2.95Z"/>
  <path class="cls-3" d="M109.95,115.57l-.65-2.95c-.25-1.11-1.11-1.98-2.22-2.22l-2.95-.65,2.95-.64c1.12-.24,1.99-1.12,2.24-2.24l.64-2.95,.65,2.95c.25,1.11,1.11,1.98,2.22,2.22l2.95,.65-2.95,.64c-1.12,.24-1.99,1.12-2.24,2.24l-.64,2.95Z"/>
  <path class="cls-3" d="M43.97,152.68l-.65-2.95c-.25-1.11-1.11-1.98-2.22-2.22l-2.95-.65,2.95-.64c1.12-.24,1.99-1.12,2.24-2.24l.64-2.95,.65,2.95c.25,1.11,1.11,1.98,2.22,2.22l2.95,.65-2.95,.64c-1.12,.24-1.99,1.12-2.24,2.24l-.64,2.95Z"/>
</svg>