<?xml version="1.0" encoding="UTF-8"?>
<svg id="Layer_1" data-name="Layer 1" xmlns="http://www.w3.org/2000/svg" viewBox="0 0 290.41 206.04">
  <defs>
    <style>
      .cls-1 {
        fill: none;
        stroke: #b1aaf2;
        stroke-linecap: round;
        stroke-linejoin: round;
      }

      .cls-2 {
        fill: #ffe9bf;
      }

      .cls-3 {
        fill: #ffd28a;
      }

      .cls-4 {
        fill: #b1aaf2;
      }
    </style>
  </defs>
  <line class="cls-1" x1="97" y1="58.53" x2="120.02" y2="98.2"/>
  <line class="cls-1" x1="136.82" y1="103.68" x2="171.9" y2="92.72"/>
  <line class="cls-1" x1="111.93" y1="119.53" x2="117.92" y2="114.14"/>
  <line class="cls-1" x1="109.39" y1="132.84" x2="112.22" y2="140.39"/>
  <line class="cls-1" x1="181.4" y1="83.8" x2="198.2" y2="36.09"/>
  <line class="cls-1" x1="181.4" y1="96.55" x2="190.9" y2="115.74"/>
  <line class="cls-1" x1="192.96" y1="128.65" x2="192.36" y2="148.62"/>
  <line class="cls-1" x1="194.55" y1="163.6" x2="204.05" y2="176.39"/>
  <path id="dot_2" data-name="dot 2" class="cls-4" d="M109.26,128.56c-1.84,.42-3.67-.74-4.09-2.59-.42-1.84,.74-3.67,2.59-4.09,1.84-.42,3.67,.74,4.09,2.59,.42,1.84-.74,3.67-2.59,4.09Z"/>
  <path id="dot_2-2" data-name="dot 2" class="cls-4" d="M191.65,160.36c-1.84,.42-3.67-.74-4.09-2.59-.42-1.84,.74-3.67,2.59-4.09,1.84-.42,3.67,.74,4.09,2.59,.42,1.84-.74,3.67-2.59,4.09Z"/>
  <path id="dot_2-3" data-name="dot 2" class="cls-4" d="M179.59,93.5c-1.84,.42-3.67-.74-4.09-2.59-.42-1.84,.74-3.67,2.59-4.09,1.84-.42,3.67,.74,4.09,2.59,.42,1.84-.74,3.67-2.59,4.09Z"/>
  <path id="dot_2-4" data-name="dot 2" class="cls-2" d="M78.8,76.73c-1.04,.24-2.08-.42-2.31-1.46-.24-1.04,.42-2.08,1.46-2.31,1.04-.24,2.08,.42,2.31,1.46,.24,1.04-.42,2.08-1.46,2.31Z"/>
  <path id="dot_2-5" data-name="dot 2" class="cls-2" d="M172.32,29.77c-1.04,.24-2.08-.42-2.31-1.46-.24-1.04,.42-2.08,1.46-2.31,1.04-.24,2.08,.42,2.31,1.46,.24,1.04-.42,2.08-1.46,2.31Z"/>
  <path id="dot_2-6" data-name="dot 2" class="cls-2" d="M78.8,26.95c-1.04,.24-2.08-.42-2.31-1.46-.24-1.04,.42-2.08,1.46-2.31,1.04-.24,2.08,.42,2.31,1.46,.24,1.04-.42,2.08-1.46,2.31Z"/>
  <path id="dot_2-7" data-name="dot 2" class="cls-2" d="M146.81,118.73c-1.04,.24-2.08-.42-2.31-1.46-.24-1.04,.42-2.08,1.46-2.31,1.04-.24,2.08,.42,2.31,1.46,.24,1.04-.42,2.08-1.46,2.31Z"/>
  <path id="dot_2-8" data-name="dot 2" class="cls-2" d="M199.72,93.99c-1.04,.24-2.08-.42-2.31-1.46-.24-1.04,.42-2.08,1.46-2.31,1.04-.24,2.08,.42,2.31,1.46,.24,1.04-.42,2.08-1.46,2.31Z"/>
  <path class="cls-3" d="M126.57,125.23l-1.76-7.98c-.66-3.01-3.01-5.35-6.02-6.02l-7.98-1.76,7.98-1.73c3.03-.66,5.4-3.02,6.05-6.05l1.73-7.98,1.76,7.98c.66,3.01,3.01,5.35,6.02,6.02l7.98,1.76-7.98,1.73c-3.03,.66-5.4,3.02-6.05,6.05l-1.73,7.98Z"/>
  <path class="cls-3" d="M112.82,153.59l-.87-3.93c-.33-1.48-1.48-2.64-2.96-2.96l-3.93-.87,3.93-.85c1.49-.32,2.66-1.49,2.98-2.98l.85-3.93,.87,3.93c.33,1.48,1.48,2.64,2.96,2.96l3.93,.87-3.93,.85c-1.49,.32-2.66,1.49-2.98,2.98l-.85,3.93Z"/>
  <path class="cls-3" d="M203.84,39.94l-1.13-5.13c-.43-1.93-1.94-3.44-3.87-3.87l-5.13-1.13,5.13-1.11c1.95-.42,3.47-1.94,3.89-3.89l1.11-5.13,1.13,5.13c.43,1.93,1.94,3.44,3.87,3.87l5.13,1.13-5.13,1.11c-1.95,.42-3.47,1.94-3.89,3.89l-1.11,5.13Z"/>
  <path class="cls-3" d="M90.88,60.2l-.78-3.55c-.3-1.34-1.34-2.38-2.68-2.68l-3.55-.78,3.55-.77c1.35-.29,2.4-1.35,2.69-2.69l.77-3.55,.78,3.55c.3,1.34,1.34,2.38,2.68,2.68l3.55,.78-3.55,.77c-1.35,.29-2.4,1.35-2.69,2.69l-.77,3.55Z"/>
  <path class="cls-3" d="M194.55,127.36l-.78-3.55c-.3-1.34-1.34-2.38-2.68-2.68l-3.55-.78,3.55-.77c1.35-.29,2.4-1.35,2.69-2.69l.77-3.55,.78,3.55c.3,1.34,1.34,2.38,2.68,2.68l3.55,.78-3.55,.77c-1.35,.29-2.4,1.35-2.69,2.69l-.77,3.55Z"/>
  <path class="cls-3" d="M208.69,186.36l-.54-2.46c-.2-.93-.93-1.65-1.85-1.85l-2.46-.54,2.45-.53c.93-.2,1.66-.93,1.86-1.86l.53-2.45,.54,2.46c.2,.93,.93,1.65,1.85,1.85l2.46,.54-2.45,.53c-.93,.2-1.66,.93-1.86,1.86l-.53,2.45Z"/>
</svg>