<?xml version="1.0" encoding="UTF-8"?>
<svg id="Layer_1" data-name="Layer 1" xmlns="http://www.w3.org/2000/svg" viewBox="0 0 290.41 206.04">
  <defs>
    <style>
      .cls-1 {
        fill: none;
        stroke: #b1aaf2;
        stroke-linecap: round;
        stroke-linejoin: round;
      }

      .cls-2 {
        fill: #ffe9bf;
      }

      .cls-3 {
        fill: #ffd28a;
      }

      .cls-4 {
        fill: #b1aaf2;
      }
    </style>
  </defs>
  <line class="cls-1" x1="73.92" y1="150.54" x2="86.02" y2="161.37"/>
  <line class="cls-1" x1="96.35" y1="166.14" x2="113.08" y2="171.55"/>
  <line class="cls-1" x1="126.25" y1="173.47" x2="137.6" y2="173.47"/>
  <line class="cls-1" x1="145.56" y1="165.18" x2="146.12" y2="142.75"/>
  <line class="cls-1" x1="149.7" y1="128.89" x2="163.39" y2="95.46"/>
  <line class="cls-1" x1="184.08" y1="65.21" x2="205.1" y2="37.83"/>
  <line class="cls-1" x1="189.81" y1="72.85" x2="215.6" y2="62.67"/>
  <line class="cls-1" x1="194.59" y1="81.13" x2="210.83" y2="84"/>
  <path id="dot_2" data-name="dot 2" class="cls-4" d="M91.31,167c-1.84,.42-3.67-.74-4.09-2.59-.42-1.84,.74-3.67,2.59-4.09,1.84-.42,3.67,.74,4.09,2.59,.42,1.84-.74,3.67-2.59,4.09Z"/>
  <path id="dot_2-2" data-name="dot 2" class="cls-4" d="M148.45,139.16c-1.84,.42-3.67-.74-4.09-2.59-.42-1.84,.74-3.67,2.59-4.09,1.84-.42,3.67,.74,4.09,2.59,.42,1.84-.74,3.67-2.59,4.09Z"/>
  <path id="dot_2-3" data-name="dot 2" class="cls-4" d="M120.19,175.61c-1.84,.42-3.67-.74-4.09-2.59-.42-1.84,.74-3.67,2.59-4.09,1.84-.42,3.67,.74,4.09,2.59,.42,1.84-.74,3.67-2.59,4.09Z"/>
  <path id="dot_2-4" data-name="dot 2" class="cls-2" d="M163.81,148.96c-1.04,.24-2.08-.42-2.31-1.46-.24-1.04,.42-2.08,1.46-2.31,1.04-.24,2.08,.42,2.31,1.46,.24,1.04-.42,2.08-1.46,2.31Z"/>
  <path id="dot_2-5" data-name="dot 2" class="cls-2" d="M184.51,37.15c-1.04,.24-2.08-.42-2.31-1.46-.24-1.04,.42-2.08,1.46-2.31,1.04-.24,2.08,.42,2.31,1.46,.24,1.04-.42,2.08-1.46,2.31Z"/>
  <path id="dot_2-6" data-name="dot 2" class="cls-2" d="M72.4,116c-1.04,.24-2.08-.42-2.31-1.46-.24-1.04,.42-2.08,1.46-2.31,1.04-.24,2.08,.42,2.31,1.46,.24,1.04-.42,2.08-1.46,2.31Z"/>
  <path id="dot_2-7" data-name="dot 2" class="cls-2" d="M82.33,139.67c-1.04,.24-2.08-.42-2.31-1.46-.24-1.04,.42-2.08,1.46-2.31,1.04-.24,2.08,.42,2.31,1.46,.24,1.04-.42,2.08-1.46,2.31Z"/>
  <path id="dot_2-8" data-name="dot 2" class="cls-2" d="M90.98,128.84c-1.04,.24-2.08-.42-2.31-1.46-.24-1.04,.42-2.08,1.46-2.31,1.04-.24,2.08,.42,2.31,1.46,.24,1.04-.42,2.08-1.46,2.31Z"/>
  <path class="cls-3" d="M177.29,94.09l-1.94-8.76c-.73-3.3-3.31-5.88-6.61-6.61l-8.76-1.94,8.75-1.9c3.33-.72,5.92-3.32,6.65-6.65l1.9-8.75,1.94,8.76c.73,3.3,3.31,5.88,6.61,6.61l8.76,1.94-8.75,1.9c-3.33,.72-5.92,3.32-6.65,6.65l-1.9,8.75Z"/>
  <path class="cls-3" d="M167.55,98l-.88-3.97c-.33-1.5-1.5-2.67-3-3l-3.97-.88,3.97-.86c1.51-.33,2.69-1.51,3.01-3.01l.86-3.97,.88,3.97c.33,1.5,1.5,2.67,3,3l3.97,.88-3.97,.86c-1.51,.33-2.69,1.51-3.01,3.01l-.86,3.97Z"/>
  <path class="cls-3" d="M70.04,153.5l-.88-3.98c-.33-1.5-1.5-2.67-3-3l-3.98-.88,3.98-.86c1.51-.33,2.69-1.51,3.02-3.02l.86-3.98,.88,3.98c.33,1.5,1.5,2.67,3,3l3.98,.88-3.98,.86c-1.51,.33-2.69,1.51-3.02,3.02l-.86,3.98Z"/>
  <path class="cls-3" d="M210.83,37.19l-.71-3.19c-.27-1.2-1.21-2.14-2.41-2.41l-3.19-.71,3.19-.69c1.21-.26,2.16-1.21,2.42-2.42l.69-3.19,.71,3.19c.27,1.2,1.21,2.14,2.41,2.41l3.19,.71-3.19,.69c-1.21,.26-2.16,1.21-2.42,2.42l-.69,3.19Z"/>
  <path class="cls-3" d="M221.91,65.8l-.71-3.19c-.27-1.2-1.21-2.14-2.41-2.41l-3.19-.71,3.19-.69c1.21-.26,2.16-1.21,2.42-2.42l.69-3.19,.71,3.19c.27,1.2,1.21,2.14,2.41,2.41l3.19,.71-3.19,.69c-1.21,.26-2.16,1.21-2.42,2.42l-.69,3.19Z"/>
  <path class="cls-3" d="M217.14,93.75l-.71-3.19c-.27-1.2-1.21-2.14-2.41-2.41l-3.19-.71,3.19-.69c1.21-.26,2.16-1.21,2.42-2.42l.69-3.19,.71,3.19c.27,1.2,1.21,2.14,2.41,2.41l3.19,.71-3.19,.69c-1.21,.26-2.16,1.21-2.42,2.42l-.69,3.19Z"/>
  <path class="cls-3" d="M145.56,181.47l-.71-3.19c-.27-1.2-1.21-2.14-2.41-2.41l-3.19-.71,3.19-.69c1.21-.26,2.16-1.21,2.42-2.42l.69-3.19,.71,3.19c.27,1.2,1.21,2.14,2.41,2.41l3.19,.71-3.19,.69c-1.21,.26-2.16,1.21-2.42,2.42l-.69,3.19Z"/>
</svg>