<?xml version="1.0" encoding="UTF-8"?>
<svg id="Layer_1" data-name="Layer 1" xmlns="http://www.w3.org/2000/svg" viewBox="0 0 290.41 206.04">
  <defs>
    <style>
      .cls-1 {
        fill: none;
        stroke: #b1aaf2;
        stroke-linecap: round;
        stroke-linejoin: round;
      }

      .cls-2 {
        fill: #ffe9bf;
      }

      .cls-3 {
        fill: #ffd28a;
      }

      .cls-4 {
        fill: #b1aaf2;
      }
    </style>
  </defs>
  <path class="cls-3" d="M164.51,193.09l-1.94-8.76c-.73-3.3-3.31-5.88-6.61-6.61l-8.76-1.94,8.75-1.9c3.33-.72,5.92-3.32,6.65-6.65l1.9-8.75,1.94,8.76c.73,3.3,3.31,5.88,6.61,6.61l8.76,1.94-8.75,1.9c-3.33,.72-5.92,3.32-6.65,6.65l-1.9,8.75Z"/>
  <path class="cls-3" d="M55.7,66.14l-.97-4.38c-.36-1.65-1.65-2.94-3.3-3.3l-4.38-.97,4.38-.95c1.66-.36,2.96-1.66,3.32-3.32l.95-4.38,.97,4.38c.36,1.65,1.65,2.94,3.3,3.3l4.38,.97-4.38,.95c-1.66,.36-2.96,1.66-3.32,3.32l-.95,4.38Z"/>
  <path class="cls-3" d="M117.76,30.25l-.97-4.38c-.36-1.65-1.65-2.94-3.3-3.3l-4.38-.97,4.38-.95c1.66-.36,2.96-1.66,3.32-3.32l.95-4.38,.97,4.38c.36,1.65,1.65,2.94,3.3,3.3l4.38,.97-4.38,.95c-1.66,.36-2.96,1.66-3.32,3.32l-.95,4.38Z"/>
  <path class="cls-3" d="M234.71,125.83l-.97-4.38c-.36-1.65-1.65-2.94-3.3-3.3l-4.38-.97,4.38-.95c1.66-.36,2.96-1.66,3.32-3.32l.95-4.38,.97,4.38c.36,1.65,1.65,2.94,3.3,3.3l4.38,.97-4.38,.95c-1.66,.36-2.96,1.66-3.32,3.32l-.95,4.38Z"/>
  <path id="dot_2" data-name="dot 2" class="cls-4" d="M137.29,71.06c-1.84,.42-3.67-.74-4.09-2.59-.42-1.84,.74-3.67,2.59-4.09,1.84-.42,3.67,.74,4.09,2.59,.42,1.84-.74,3.67-2.59,4.09Z"/>
  <path id="dot_2-2" data-name="dot 2" class="cls-4" d="M104.78,106.03c-1.84,.42-3.67-.74-4.09-2.59-.42-1.84,.74-3.67,2.59-4.09,1.84-.42,3.67,.74,4.09,2.59,.42,1.84-.74,3.67-2.59,4.09Z"/>
  <path id="dot_2-3" data-name="dot 2" class="cls-4" d="M82.83,165.34c-1.84,.42-3.67-.74-4.09-2.59-.42-1.84,.74-3.67,2.59-4.09,1.84-.42,3.67,.74,4.09,2.59,.42,1.84-.74,3.67-2.59,4.09Z"/>
  <line class="cls-1" x1="63.69" y1="64.3" x2="96.77" y2="98.12"/>
  <line class="cls-1" x1="111.44" y1="96.57" x2="130.89" y2="75.31"/>
  <line class="cls-1" x1="136.68" y1="59.58" x2="125.1" y2="32.47"/>
  <line class="cls-1" x1="110.16" y1="110.29" x2="150.66" y2="158.89"/>
  <line class="cls-1" x1="175.22" y1="162" x2="226.05" y2="121.9"/>
  <line class="cls-1" x1="146.14" y1="171.03" x2="89.38" y2="164.54"/>
  <path id="dot_2-4" data-name="dot 2" class="cls-2" d="M115.37,74.88c-1.04,.24-2.08-.42-2.31-1.46-.24-1.04,.42-2.08,1.46-2.31,1.04-.24,2.08,.42,2.31,1.46,.24,1.04-.42,2.08-1.46,2.31Z"/>
  <path id="dot_2-5" data-name="dot 2" class="cls-2" d="M194.31,176.62c-1.04,.24-2.08-.42-2.31-1.46-.24-1.04,.42-2.08,1.46-2.31,1.04-.24,2.08,.42,2.31,1.46,.24,1.04-.42,2.08-1.46,2.31Z"/>
  <path id="dot_2-6" data-name="dot 2" class="cls-2" d="M210.67,158.84c-1.04,.24-2.08-.42-2.31-1.46-.24-1.04,.42-2.08,1.46-2.31,1.04-.24,2.08,.42,2.31,1.46,.24,1.04-.42,2.08-1.46,2.31Z"/>
  <path id="dot_2-7" data-name="dot 2" class="cls-2" d="M190.77,166.43c-1.04,.24-2.08-.42-2.31-1.46-.24-1.04,.42-2.08,1.46-2.31,1.04-.24,2.08,.42,2.31,1.46,.24,1.04-.42,2.08-1.46,2.31Z"/>
  <path id="dot_2-8" data-name="dot 2" class="cls-2" d="M102.97,178.56c-1.04,.24-2.08-.42-2.31-1.46-.24-1.04,.42-2.08,1.46-2.31,1.04-.24,2.08,.42,2.31,1.46,.24,1.04-.42,2.08-1.46,2.31Z"/>
  <path id="dot_2-9" data-name="dot 2" class="cls-2" d="M187.77,108.48c-1.04,.24-2.08-.42-2.31-1.46-.24-1.04,.42-2.08,1.46-2.31,1.04-.24,2.08,.42,2.31,1.46,.24,1.04-.42,2.08-1.46,2.31Z"/>
  <path id="dot_2-10" data-name="dot 2" class="cls-2" d="M80.65,62.36c-1.04,.24-2.08-.42-2.31-1.46-.24-1.04,.42-2.08,1.46-2.31,1.04-.24,2.08,.42,2.31,1.46,.24,1.04-.42,2.08-1.46,2.31Z"/>
  <path id="dot_2-11" data-name="dot 2" class="cls-2" d="M148.5,45.98c-1.04,.24-2.08-.42-2.31-1.46-.24-1.04,.42-2.08,1.46-2.31,1.04-.24,2.08,.42,2.31,1.46,.24,1.04-.42,2.08-1.46,2.31Z"/>
  <path id="dot_2-12" data-name="dot 2" class="cls-2" d="M117.31,153.97c-1.04,.24-2.08-.42-2.31-1.46-.24-1.04,.42-2.08,1.46-2.31,1.04-.24,2.08,.42,2.31,1.46,.24,1.04-.42,2.08-1.46,2.31Z"/>
</svg>