<?xml version="1.0" encoding="UTF-8"?>
<svg id="Layer_1" data-name="Layer 1" xmlns="http://www.w3.org/2000/svg" viewBox="0 0 290.41 206.04">
  <defs>
    <style>
      .cls-1 {
        fill: none;
        stroke: #b1aaf2;
        stroke-linecap: round;
        stroke-linejoin: round;
      }

      .cls-2 {
        fill: #ffe9bf;
      }

      .cls-3 {
        fill: #ffd28a;
      }

      .cls-4 {
        fill: #b1aaf2;
      }
    </style>
  </defs>
  <g>
    <line class="cls-1" x1="104.68" y1="36.77" x2="73.19" y2="94.02"/>
    <line class="cls-1" x1="73.19" y1="109.76" x2="88.94" y2="154.49"/>
    <line class="cls-1" x1="101.82" y1="161.65" x2="140.82" y2="118.35"/>
    <line class="cls-1" x1="143.32" y1="100.82" x2="130.08" y2="80.78"/>
    <line class="cls-1" x1="122.57" y1="65.39" x2="112.91" y2="36.77"/>
    <line class="cls-1" x1="156.21" y1="107.97" x2="169.27" y2="105.24"/>
    <line class="cls-1" x1="185.56" y1="98.39" x2="211.67" y2="80.78"/>
    <path id="dot_2" data-name="dot 2" class="cls-4" d="M178.16,106.11c-1.84,.42-3.67-.74-4.09-2.59-.42-1.84,.74-3.67,2.59-4.09,1.84-.42,3.67,.74,4.09,2.59,.42,1.84-.74,3.67-2.59,4.09Z"/>
    <path id="dot_2-2" data-name="dot 2" class="cls-4" d="M71.75,105.16c-1.84,.42-3.67-.74-4.09-2.59-.42-1.84,.74-3.67,2.59-4.09,1.84-.42,3.67,.74,4.09,2.59,.42,1.84-.74,3.67-2.59,4.09Z"/>
    <path id="dot_2-3" data-name="dot 2" class="cls-4" d="M126.75,78.05c-1.84,.42-3.67-.74-4.09-2.59-.42-1.84,.74-3.67,2.59-4.09,1.84-.42,3.67,.74,4.09,2.59,.42,1.84-.74,3.67-2.59,4.09Z"/>
    <path id="dot_2-4" data-name="dot 2" class="cls-2" d="M68,64.09c-1.04,.24-2.08-.42-2.31-1.46-.24-1.04,.42-2.08,1.46-2.31,1.04-.24,2.08,.42,2.31,1.46,.24,1.04-.42,2.08-1.46,2.31Z"/>
    <path id="dot_2-5" data-name="dot 2" class="cls-2" d="M137.13,41.16c-1.04,.24-2.08-.42-2.31-1.46-.24-1.04,.42-2.08,1.46-2.31,1.04-.24,2.08,.42,2.31,1.46,.24,1.04-.42,2.08-1.46,2.31Z"/>
    <path id="dot_2-6" data-name="dot 2" class="cls-2" d="M113.34,126.48c-1.04,.24-2.08-.42-2.31-1.46-.24-1.04,.42-2.08,1.46-2.31,1.04-.24,2.08,.42,2.31,1.46,.24,1.04-.42,2.08-1.46,2.31Z"/>
    <path id="dot_2-7" data-name="dot 2" class="cls-2" d="M137.13,178.56c-1.04,.24-2.08-.42-2.31-1.46-.24-1.04,.42-2.08,1.46-2.31,1.04-.24,2.08,.42,2.31,1.46,.24,1.04-.42,2.08-1.46,2.31Z"/>
  </g>
  <path class="cls-3" d="M94.97,182.65l-1.76-7.98c-.66-3.01-3.01-5.35-6.02-6.02l-7.98-1.76,7.98-1.73c3.03-.66,5.4-3.02,6.05-6.05l1.73-7.98,1.76,7.98c.66,3.01,3.01,5.35,6.02,6.02l7.98,1.76-7.98,1.73c-3.03,.66-5.4,3.02-6.05,6.05l-1.73,7.98Z"/>
  <path class="cls-3" d="M146.22,118.88l-1.22-5.52c-.46-2.08-2.08-3.71-4.17-4.17l-5.52-1.22,5.52-1.2c2.1-.46,3.73-2.09,4.19-4.19l1.2-5.52,1.22,5.52c.46,2.08,2.08,3.71,4.17,4.17l5.52,1.22-5.52,1.2c-2.1,.46-3.73,2.09-4.19,4.19l-1.2,5.52Z"/>
  <path class="cls-3" d="M217.24,83.61l-.84-3.82c-.32-1.44-1.44-2.56-2.88-2.88l-3.82-.84,3.81-.83c1.45-.31,2.58-1.45,2.89-2.89l.83-3.81,.84,3.82c.32,1.44,1.44,2.56,2.88,2.88l3.82,.84-3.81,.83c-1.45,.31-2.58,1.45-2.89,2.89l-.83,3.81Z"/>
  <path class="cls-3" d="M109.35,38.47l-.84-3.82c-.32-1.44-1.44-2.56-2.88-2.88l-3.82-.84,3.81-.83c1.45-.31,2.58-1.45,2.89-2.89l.83-3.81,.84,3.82c.32,1.44,1.44,2.56,2.88,2.88l3.82,.84-3.81,.83c-1.45,.31-2.58,1.45-2.89,2.89l-.83,3.81Z"/>
</svg>