<?xml version="1.0" encoding="UTF-8"?>
<svg id="Layer_1" data-name="Layer 1" xmlns="http://www.w3.org/2000/svg" viewBox="0 0 126.03 113.26">
  <defs>
    <style>
      .cls-1 {
        fill: none;
        stroke: #12000e;
        stroke-linecap: round;
        stroke-linejoin: round;
        stroke-width: 5px;
      }
    </style>
  </defs>
  <g>
    <path class="cls-1" d="M57.06,89.83V29.32c0-7.76,6.08-14.06,13.58-14.06h0c7.5,0,13.58,6.29,13.58,14.06v54.58c0,7.79,6.31,14.1,14.1,14.1h0c7.79,0,14.1-6.31,14.1-14.1v-14.66"/>
    <g>
      <path class="cls-1" d="M29.9,89.83V29.32c0-7.76,6.08-14.06,13.58-14.06h0c7.5,0,13.58,6.29,13.58,14.06v60.51"/>
      <path class="cls-1" d="M2.74,29.32c0-7.76,6.08-14.06,13.58-14.06h0c7.5,0,13.58,6.29,13.58,14.06v60.51"/>
    </g>
  </g>
  <polyline class="cls-1" points="101.57 83.88 112.43 69.02 123.29 83.88"/>
</svg>